solid OpenSCAD_Model
  facet normal 0 0 -1
    outer loop
      vertex 0.218524 7.92088 0
      vertex 0 10 0
      vertex 0.864545 5.93263 0
    endloop
  endfacet
  facet normal 0 0 -1
    outer loop
      vertex 5 1.33975 0
      vertex 3.30869 2.56855 0
      vertex 6.90983 0.489435 0
    endloop
  endfacet
  facet normal 0 0 -1
    outer loop
      vertex 3.30869 2.56855 0
      vertex 1.90983 4.12215 0
      vertex 0.864545 5.93263 0
    endloop
  endfacet
  facet normal 0 0 -1
    outer loop
      vertex 6.90983 0.489435 0
      vertex 3.30869 2.56855 0
      vertex 0.864545 5.93263 0
    endloop
  endfacet
  facet normal 0 0 -1
    outer loop
      vertex 0 10 0
      vertex 6.90983 0.489435 0
      vertex 0.864545 5.93263 0
    endloop
  endfacet
  facet normal 0 0 -1
    outer loop
      vertex 0 10 0
      vertex 8.95472 0.054781 0
      vertex 6.90983 0.489435 0
    endloop
  endfacet
  facet normal 0 0 -1
    outer loop
      vertex 0 10 0
      vertex 8.95472 29.9452 0
      vertex 8.95472 0.054781 0
    endloop
  endfacet
  facet normal -0 -0 -1
    outer loop
      vertex 99.7815 22.0791 0
      vertex 100 20 0
      vertex 98.0902 25.8779 0
    endloop
  endfacet
  facet normal 0 0 -1
    outer loop
      vertex 91.0453 0.054781 0
      vertex 95 1.33975 0
      vertex 93.0902 0.489435 0
    endloop
  endfacet
  facet normal -0 0 -1
    outer loop
      vertex 98.0902 4.12215 0
      vertex 96.6913 2.56855 0
      vertex 99.7815 7.92088 0
    endloop
  endfacet
  facet normal 0 0 -1
    outer loop
      vertex 99.7815 7.92088 0
      vertex 96.6913 2.56855 0
      vertex 95 1.33975 0
    endloop
  endfacet
  facet normal 0 0 -1
    outer loop
      vertex 99.7815 7.92088 0
      vertex 99.1355 5.93263 0
      vertex 98.0902 4.12215 0
    endloop
  endfacet
  facet normal 0 0 -1
    outer loop
      vertex 100 10 0
      vertex 99.7815 7.92088 0
      vertex 95 1.33975 0
    endloop
  endfacet
  facet normal 0 0 -1
    outer loop
      vertex 91.0453 0.054781 0
      vertex 100 10 0
      vertex 95 1.33975 0
    endloop
  endfacet
  facet normal 0 0 -1
    outer loop
      vertex 91.0453 0.054781 0
      vertex 100 20 0
      vertex 100 10 0
    endloop
  endfacet
  facet normal -0 -0 -1
    outer loop
      vertex 99.1355 24.0674 0
      vertex 99.7815 22.0791 0
      vertex 98.0902 25.8779 0
    endloop
  endfacet
  facet normal 0 0 -1
    outer loop
      vertex 98.0902 25.8779 0
      vertex 95 28.6603 0
      vertex 96.6913 27.4314 0
    endloop
  endfacet
  facet normal -0 -0 -1
    outer loop
      vertex 98.0902 25.8779 0
      vertex 100 20 0
      vertex 95 28.6603 0
    endloop
  endfacet
  facet normal 0 0 -1
    outer loop
      vertex 95 28.6603 0
      vertex 91.0453 29.9452 0
      vertex 93.0902 29.5106 0
    endloop
  endfacet
  facet normal -0 -0 -1
    outer loop
      vertex 95 28.6603 0
      vertex 100 20 0
      vertex 91.0453 29.9452 0
    endloop
  endfacet
  facet normal 0 -0 -1
    outer loop
      vertex 91.0453 29.9452 0
      vertex 100 20 0
      vertex 91.0453 0.054781 0
    endloop
  endfacet
  facet normal 0 0 -1
    outer loop
      vertex 8.95472 29.9452 0
      vertex 91.0453 29.9452 0
      vertex 91.0453 0.054781 0
    endloop
  endfacet
  facet normal 0 0 -1
    outer loop
      vertex 8.95472 0.054781 0
      vertex 8.95472 29.9452 0
      vertex 91.0453 0.054781 0
    endloop
  endfacet
  facet normal 0 0 -1
    outer loop
      vertex 0 10 0
      vertex 0 20 0
      vertex 8.95472 29.9452 0
    endloop
  endfacet
  facet normal 0 0 -1
    outer loop
      vertex 8.95472 29.9452 0
      vertex 3.30869 27.4314 0
      vertex 6.90983 29.5106 0
    endloop
  endfacet
  facet normal 0 0 -1
    outer loop
      vertex 6.90983 29.5106 0
      vertex 3.30869 27.4314 0
      vertex 5 28.6603 0
    endloop
  endfacet
  facet normal 0 0 -1
    outer loop
      vertex 8.95472 29.9452 0
      vertex 0 20 0
      vertex 3.30869 27.4314 0
    endloop
  endfacet
  facet normal 0 0 -1
    outer loop
      vertex 3.30869 27.4314 0
      vertex 0.864545 24.0674 0
      vertex 1.90983 25.8779 0
    endloop
  endfacet
  facet normal 0 0 -1
    outer loop
      vertex 3.30869 27.4314 0
      vertex 0 20 0
      vertex 0.864545 24.0674 0
    endloop
  endfacet
  facet normal 0 0 -1
    outer loop
      vertex 0.864545 24.0674 0
      vertex 0 20 0
      vertex 0.218524 22.0791 0
    endloop
  endfacet
  facet normal 0 0 1
    outer loop
      vertex 0.864545 5.93263 4
      vertex 0 10 4
      vertex 0.218524 7.92088 4
    endloop
  endfacet
  facet normal 0 0 1
    outer loop
      vertex 6.90983 0.489435 4
      vertex 3.30869 2.56855 4
      vertex 5 1.33975 4
    endloop
  endfacet
  facet normal 0 0 1
    outer loop
      vertex 0.864545 5.93263 4
      vertex 1.90983 4.12215 4
      vertex 3.30869 2.56855 4
    endloop
  endfacet
  facet normal 0 0 1
    outer loop
      vertex 0.864545 5.93263 4
      vertex 3.30869 2.56855 4
      vertex 6.90983 0.489435 4
    endloop
  endfacet
  facet normal -0 -0 1
    outer loop
      vertex 0.864545 5.93263 4
      vertex 6.90983 0.489435 4
      vertex 0 10 4
    endloop
  endfacet
  facet normal -0 -0 1
    outer loop
      vertex 6.90983 0.489435 4
      vertex 8.95472 0.054781 4
      vertex 0 10 4
    endloop
  endfacet
  facet normal 0 -0 1
    outer loop
      vertex 8.95472 0.054781 4
      vertex 8.95472 29.9452 4
      vertex 0 10 4
    endloop
  endfacet
  facet normal 0 0 1
    outer loop
      vertex 98.0902 25.8779 4
      vertex 100 20 4
      vertex 99.7815 22.0791 4
    endloop
  endfacet
  facet normal 0 -0 1
    outer loop
      vertex 93.0902 0.489435 4
      vertex 95 1.33975 4
      vertex 91.0453 0.054781 4
    endloop
  endfacet
  facet normal 0 0 1
    outer loop
      vertex 99.7815 7.92088 4
      vertex 96.6913 2.56855 4
      vertex 98.0902 4.12215 4
    endloop
  endfacet
  facet normal 0 0 1
    outer loop
      vertex 95 1.33975 4
      vertex 96.6913 2.56855 4
      vertex 99.7815 7.92088 4
    endloop
  endfacet
  facet normal 0 0 1
    outer loop
      vertex 98.0902 4.12215 4
      vertex 99.1355 5.93263 4
      vertex 99.7815 7.92088 4
    endloop
  endfacet
  facet normal 0 0 1
    outer loop
      vertex 95 1.33975 4
      vertex 99.7815 7.92088 4
      vertex 100 10 4
    endloop
  endfacet
  facet normal 0 -0 1
    outer loop
      vertex 95 1.33975 4
      vertex 100 10 4
      vertex 91.0453 0.054781 4
    endloop
  endfacet
  facet normal 0 -0 1
    outer loop
      vertex 100 10 4
      vertex 100 20 4
      vertex 91.0453 0.054781 4
    endloop
  endfacet
  facet normal 0 0 1
    outer loop
      vertex 98.0902 25.8779 4
      vertex 99.7815 22.0791 4
      vertex 99.1355 24.0674 4
    endloop
  endfacet
  facet normal 0 0 1
    outer loop
      vertex 96.6913 27.4314 4
      vertex 95 28.6603 4
      vertex 98.0902 25.8779 4
    endloop
  endfacet
  facet normal 0 0 1
    outer loop
      vertex 95 28.6603 4
      vertex 100 20 4
      vertex 98.0902 25.8779 4
    endloop
  endfacet
  facet normal 0 0 1
    outer loop
      vertex 93.0902 29.5106 4
      vertex 91.0453 29.9452 4
      vertex 95 28.6603 4
    endloop
  endfacet
  facet normal 0 0 1
    outer loop
      vertex 91.0453 29.9452 4
      vertex 100 20 4
      vertex 95 28.6603 4
    endloop
  endfacet
  facet normal 0 0 1
    outer loop
      vertex 91.0453 0.054781 4
      vertex 100 20 4
      vertex 91.0453 29.9452 4
    endloop
  endfacet
  facet normal 0 -0 1
    outer loop
      vertex 91.0453 0.054781 4
      vertex 91.0453 29.9452 4
      vertex 8.95472 29.9452 4
    endloop
  endfacet
  facet normal 0 0 1
    outer loop
      vertex 91.0453 0.054781 4
      vertex 8.95472 29.9452 4
      vertex 8.95472 0.054781 4
    endloop
  endfacet
  facet normal 0 0 1
    outer loop
      vertex 8.95472 29.9452 4
      vertex 0 20 4
      vertex 0 10 4
    endloop
  endfacet
  facet normal -0 0 1
    outer loop
      vertex 6.90983 29.5106 4
      vertex 3.30869 27.4314 4
      vertex 8.95472 29.9452 4
    endloop
  endfacet
  facet normal -0 0 1
    outer loop
      vertex 5 28.6603 4
      vertex 3.30869 27.4314 4
      vertex 6.90983 29.5106 4
    endloop
  endfacet
  facet normal -0 0 1
    outer loop
      vertex 3.30869 27.4314 4
      vertex 0 20 4
      vertex 8.95472 29.9452 4
    endloop
  endfacet
  facet normal -0 0 1
    outer loop
      vertex 1.90983 25.8779 4
      vertex 0.864545 24.0674 4
      vertex 3.30869 27.4314 4
    endloop
  endfacet
  facet normal -0 0 1
    outer loop
      vertex 0.864545 24.0674 4
      vertex 0 20 4
      vertex 3.30869 27.4314 4
    endloop
  endfacet
  facet normal -0 0 1
    outer loop
      vertex 0.218524 22.0791 4
      vertex 0 20 4
      vertex 0.864545 24.0674 4
    endloop
  endfacet
  facet normal -0.994522 -0.104528 0
    outer loop
      vertex 0.218524 7.92088 0
      vertex 0 10 4
      vertex 0 10 0
    endloop
  endfacet
  facet normal -0.994522 -0.104528 0
    outer loop
      vertex 0.218524 7.92088 0
      vertex 0.218524 7.92088 4
      vertex 0 10 4
    endloop
  endfacet
  facet normal -0.951057 -0.309017 0
    outer loop
      vertex 0.864545 5.93263 0
      vertex 0.218524 7.92088 4
      vertex 0.218524 7.92088 0
    endloop
  endfacet
  facet normal -0.951057 -0.309017 0
    outer loop
      vertex 0.864545 5.93263 0
      vertex 0.864545 5.93263 4
      vertex 0.218524 7.92088 4
    endloop
  endfacet
  facet normal -0.866025 -0.5 0
    outer loop
      vertex 1.90983 4.12215 0
      vertex 0.864545 5.93263 4
      vertex 0.864545 5.93263 0
    endloop
  endfacet
  facet normal -0.866025 -0.5 0
    outer loop
      vertex 1.90983 4.12215 0
      vertex 1.90983 4.12215 4
      vertex 0.864545 5.93263 4
    endloop
  endfacet
  facet normal -0.743145 -0.669131 0
    outer loop
      vertex 3.30869 2.56855 0
      vertex 1.90983 4.12215 4
      vertex 1.90983 4.12215 0
    endloop
  endfacet
  facet normal -0.743145 -0.669131 0
    outer loop
      vertex 3.30869 2.56855 0
      vertex 3.30869 2.56855 4
      vertex 1.90983 4.12215 4
    endloop
  endfacet
  facet normal -0.587785 -0.809017 0
    outer loop
      vertex 5 1.33975 0
      vertex 3.30869 2.56855 4
      vertex 3.30869 2.56855 0
    endloop
  endfacet
  facet normal -0.587785 -0.809017 0
    outer loop
      vertex 5 1.33975 0
      vertex 5 1.33975 4
      vertex 3.30869 2.56855 4
    endloop
  endfacet
  facet normal -0.406737 -0.913545 0
    outer loop
      vertex 6.90983 0.489435 0
      vertex 5 1.33975 4
      vertex 5 1.33975 0
    endloop
  endfacet
  facet normal -0.406737 -0.913545 0
    outer loop
      vertex 6.90983 0.489435 0
      vertex 6.90983 0.489435 4
      vertex 5 1.33975 4
    endloop
  endfacet
  facet normal -0.207912 -0.978148 0
    outer loop
      vertex 8.95472 0.054781 0
      vertex 6.90983 0.489435 4
      vertex 6.90983 0.489435 0
    endloop
  endfacet
  facet normal -0.207912 -0.978148 0
    outer loop
      vertex 8.95472 0.054781 0
      vertex 8.95472 0.054781 4
      vertex 6.90983 0.489435 4
    endloop
  endfacet
  facet normal 0 -1 0
    outer loop
      vertex 91.0453 0.054781 0
      vertex 8.95472 0.054781 4
      vertex 8.95472 0.054781 0
    endloop
  endfacet
  facet normal 0 -1 0
    outer loop
      vertex 91.0453 0.054781 0
      vertex 91.0453 0.054781 4
      vertex 8.95472 0.054781 4
    endloop
  endfacet
  facet normal 0.207912 -0.978148 0
    outer loop
      vertex 93.0902 0.489435 0
      vertex 91.0453 0.054781 4
      vertex 91.0453 0.054781 0
    endloop
  endfacet
  facet normal 0.207912 -0.978148 0
    outer loop
      vertex 93.0902 0.489435 0
      vertex 93.0902 0.489435 4
      vertex 91.0453 0.054781 4
    endloop
  endfacet
  facet normal 0.406737 -0.913545 0
    outer loop
      vertex 95 1.33975 0
      vertex 93.0902 0.489435 4
      vertex 93.0902 0.489435 0
    endloop
  endfacet
  facet normal 0.406737 -0.913545 0
    outer loop
      vertex 95 1.33975 0
      vertex 95 1.33975 4
      vertex 93.0902 0.489435 4
    endloop
  endfacet
  facet normal 0.587785 -0.809017 0
    outer loop
      vertex 96.6913 2.56855 0
      vertex 95 1.33975 4
      vertex 95 1.33975 0
    endloop
  endfacet
  facet normal 0.587785 -0.809017 0
    outer loop
      vertex 96.6913 2.56855 0
      vertex 96.6913 2.56855 4
      vertex 95 1.33975 4
    endloop
  endfacet
  facet normal 0.743145 -0.669131 0
    outer loop
      vertex 98.0902 4.12215 0
      vertex 96.6913 2.56855 4
      vertex 96.6913 2.56855 0
    endloop
  endfacet
  facet normal 0.743145 -0.669131 0
    outer loop
      vertex 98.0902 4.12215 0
      vertex 98.0902 4.12215 4
      vertex 96.6913 2.56855 4
    endloop
  endfacet
  facet normal 0.866025 -0.5 0
    outer loop
      vertex 99.1355 5.93263 0
      vertex 98.0902 4.12215 4
      vertex 98.0902 4.12215 0
    endloop
  endfacet
  facet normal 0.866025 -0.5 0
    outer loop
      vertex 99.1355 5.93263 0
      vertex 99.1355 5.93263 4
      vertex 98.0902 4.12215 4
    endloop
  endfacet
  facet normal 0.951057 -0.309017 0
    outer loop
      vertex 99.7815 7.92088 0
      vertex 99.1355 5.93263 4
      vertex 99.1355 5.93263 0
    endloop
  endfacet
  facet normal 0.951057 -0.309017 0
    outer loop
      vertex 99.7815 7.92088 0
      vertex 99.7815 7.92088 4
      vertex 99.1355 5.93263 4
    endloop
  endfacet
  facet normal 0.994522 -0.104528 0
    outer loop
      vertex 100 10 0
      vertex 99.7815 7.92088 4
      vertex 99.7815 7.92088 0
    endloop
  endfacet
  facet normal 0.994522 -0.104528 0
    outer loop
      vertex 100 10 0
      vertex 100 10 4
      vertex 99.7815 7.92088 4
    endloop
  endfacet
  facet normal 1 0 0
    outer loop
      vertex 100 20 0
      vertex 100 10 4
      vertex 100 10 0
    endloop
  endfacet
  facet normal 1 0 -0
    outer loop
      vertex 100 20 0
      vertex 100 20 4
      vertex 100 10 4
    endloop
  endfacet
  facet normal 0.994522 0.104528 0
    outer loop
      vertex 99.7815 22.0791 0
      vertex 100 20 4
      vertex 100 20 0
    endloop
  endfacet
  facet normal 0.994522 0.104528 -0
    outer loop
      vertex 99.7815 22.0791 0
      vertex 99.7815 22.0791 4
      vertex 100 20 4
    endloop
  endfacet
  facet normal 0.951057 0.309017 0
    outer loop
      vertex 99.1355 24.0674 0
      vertex 99.7815 22.0791 4
      vertex 99.7815 22.0791 0
    endloop
  endfacet
  facet normal 0.951057 0.309017 -0
    outer loop
      vertex 99.1355 24.0674 0
      vertex 99.1355 24.0674 4
      vertex 99.7815 22.0791 4
    endloop
  endfacet
  facet normal 0.866025 0.5 0
    outer loop
      vertex 98.0902 25.8779 0
      vertex 99.1355 24.0674 4
      vertex 99.1355 24.0674 0
    endloop
  endfacet
  facet normal 0.866025 0.5 -0
    outer loop
      vertex 98.0902 25.8779 0
      vertex 98.0902 25.8779 4
      vertex 99.1355 24.0674 4
    endloop
  endfacet
  facet normal 0.743145 0.669131 0
    outer loop
      vertex 96.6913 27.4314 0
      vertex 98.0902 25.8779 4
      vertex 98.0902 25.8779 0
    endloop
  endfacet
  facet normal 0.743145 0.669131 -0
    outer loop
      vertex 96.6913 27.4314 0
      vertex 96.6913 27.4314 4
      vertex 98.0902 25.8779 4
    endloop
  endfacet
  facet normal 0.587785 0.809017 0
    outer loop
      vertex 95 28.6603 0
      vertex 96.6913 27.4314 4
      vertex 96.6913 27.4314 0
    endloop
  endfacet
  facet normal 0.587785 0.809017 -0
    outer loop
      vertex 95 28.6603 0
      vertex 95 28.6603 4
      vertex 96.6913 27.4314 4
    endloop
  endfacet
  facet normal 0.406737 0.913545 0
    outer loop
      vertex 93.0902 29.5106 0
      vertex 95 28.6603 4
      vertex 95 28.6603 0
    endloop
  endfacet
  facet normal 0.406737 0.913545 -0
    outer loop
      vertex 93.0902 29.5106 0
      vertex 93.0902 29.5106 4
      vertex 95 28.6603 4
    endloop
  endfacet
  facet normal 0.207912 0.978148 0
    outer loop
      vertex 91.0453 29.9452 0
      vertex 93.0902 29.5106 4
      vertex 93.0902 29.5106 0
    endloop
  endfacet
  facet normal 0.207912 0.978148 -0
    outer loop
      vertex 91.0453 29.9452 0
      vertex 91.0453 29.9452 4
      vertex 93.0902 29.5106 4
    endloop
  endfacet
  facet normal 0 1 0
    outer loop
      vertex 8.95472 29.9452 0
      vertex 91.0453 29.9452 4
      vertex 91.0453 29.9452 0
    endloop
  endfacet
  facet normal 0 1 0
    outer loop
      vertex 8.95472 29.9452 0
      vertex 8.95472 29.9452 4
      vertex 91.0453 29.9452 4
    endloop
  endfacet
  facet normal -0.207912 0.978148 0
    outer loop
      vertex 6.90983 29.5106 0
      vertex 8.95472 29.9452 4
      vertex 8.95472 29.9452 0
    endloop
  endfacet
  facet normal -0.207912 0.978148 0
    outer loop
      vertex 6.90983 29.5106 0
      vertex 6.90983 29.5106 4
      vertex 8.95472 29.9452 4
    endloop
  endfacet
  facet normal -0.406737 0.913545 0
    outer loop
      vertex 5 28.6603 0
      vertex 6.90983 29.5106 4
      vertex 6.90983 29.5106 0
    endloop
  endfacet
  facet normal -0.406737 0.913545 0
    outer loop
      vertex 5 28.6603 0
      vertex 5 28.6603 4
      vertex 6.90983 29.5106 4
    endloop
  endfacet
  facet normal -0.587785 0.809017 0
    outer loop
      vertex 3.30869 27.4314 0
      vertex 5 28.6603 4
      vertex 5 28.6603 0
    endloop
  endfacet
  facet normal -0.587785 0.809017 0
    outer loop
      vertex 3.30869 27.4314 0
      vertex 3.30869 27.4314 4
      vertex 5 28.6603 4
    endloop
  endfacet
  facet normal -0.743145 0.669131 0
    outer loop
      vertex 1.90983 25.8779 0
      vertex 3.30869 27.4314 4
      vertex 3.30869 27.4314 0
    endloop
  endfacet
  facet normal -0.743145 0.669131 0
    outer loop
      vertex 1.90983 25.8779 0
      vertex 1.90983 25.8779 4
      vertex 3.30869 27.4314 4
    endloop
  endfacet
  facet normal -0.866025 0.5 0
    outer loop
      vertex 0.864545 24.0674 0
      vertex 1.90983 25.8779 4
      vertex 1.90983 25.8779 0
    endloop
  endfacet
  facet normal -0.866025 0.5 0
    outer loop
      vertex 0.864545 24.0674 0
      vertex 0.864545 24.0674 4
      vertex 1.90983 25.8779 4
    endloop
  endfacet
  facet normal -0.951057 0.309017 0
    outer loop
      vertex 0.218524 22.0791 0
      vertex 0.864545 24.0674 4
      vertex 0.864545 24.0674 0
    endloop
  endfacet
  facet normal -0.951057 0.309017 0
    outer loop
      vertex 0.218524 22.0791 0
      vertex 0.218524 22.0791 4
      vertex 0.864545 24.0674 4
    endloop
  endfacet
  facet normal -0.994522 0.104528 0
    outer loop
      vertex 0 20 0
      vertex 0.218524 22.0791 4
      vertex 0.218524 22.0791 0
    endloop
  endfacet
  facet normal -0.994522 0.104528 0
    outer loop
      vertex 0 20 0
      vertex 0 20 4
      vertex 0.218524 22.0791 4
    endloop
  endfacet
  facet normal -1 0 0
    outer loop
      vertex 0 10 0
      vertex 0 20 4
      vertex 0 20 0
    endloop
  endfacet
  facet normal -1 0 0
    outer loop
      vertex 0 10 0
      vertex 0 10 4
      vertex 0 20 4
    endloop
  endfacet
endsolid OpenSCAD_Model
