<?xml version="1.0" encoding="UTF-8" standalone="no"?>
<!-- Created with Inkscape (http://www.inkscape.org/) -->

<svg
   xmlns:dc="http://purl.org/dc/elements/1.1/"
   xmlns:cc="http://creativecommons.org/ns#"
   xmlns:rdf="http://www.w3.org/1999/02/22-rdf-syntax-ns#"
   xmlns:svg="http://www.w3.org/2000/svg"
   xmlns="http://www.w3.org/2000/svg"
   xmlns:sodipodi="http://sodipodi.sourceforge.net/DTD/sodipodi-0.dtd"
   xmlns:inkscape="http://www.inkscape.org/namespaces/inkscape"
   width="279.9469"
   height="41"
   id="svg3903"
   version="1.1"
   inkscape:version="0.48.4 r9939"
   sodipodi:docname="Novo documento 3">
  <defs
     id="defs3905" />
  <sodipodi:namedview
     id="base"
     pagecolor="#ffffff"
     bordercolor="#666666"
     borderopacity="1.0"
     inkscape:pageopacity="0.0"
     inkscape:pageshadow="2"
     inkscape:zoom="0.35"
     inkscape:cx="149.28376"
     inkscape:cy="-89.099463"
     inkscape:document-units="px"
     inkscape:current-layer="layer1"
     showgrid="false"
     fit-margin-top="0"
     fit-margin-left="0"
     fit-margin-right="0"
     fit-margin-bottom="0"
     inkscape:window-width="1364"
     inkscape:window-height="720"
     inkscape:window-x="0"
     inkscape:window-y="0"
     inkscape:window-maximized="1" />
  <metadata
     id="metadata3908">
    <rdf:RDF>
      <cc:Work
         rdf:about="">
        <dc:format>image/svg+xml</dc:format>
        <dc:type
           rdf:resource="http://purl.org/dc/dcmitype/StillImage" />
        <dc:title></dc:title>
      </cc:Work>
    </rdf:RDF>
  </metadata>
  <g
     inkscape:label="Camada 1"
     inkscape:groupmode="layer"
     id="layer1"
     transform="translate(-200.71624,-402.26272)">
    <path
       id="path89"
       style="fill:#e52c5c;fill-opacity:1"
       d="m 367.5986,402.72469 c -1.18634,-0.82543 -2.80329,-0.50442 -3.61266,0.64198 l -20.6276,30.266 c -0.80896,1.19229 -0.50262,2.84316 0.68372,3.62271 0.44848,0.32101 0.95752,0.45858 1.46194,0.45858 0.83091,0 1.64768,-0.41269 2.15024,-1.14639 l 13.13865,-19.26023 0,17.79274 c 0,1.4216 1.16432,2.56804 2.60015,2.56804 1.4353,0 2.59962,-1.14644 2.59962,-2.56804 l 0,-25.40506 2.28876,-3.39346 c 0.80937,-1.19229 0.50309,-2.79732 -0.68282,-3.57687 z m 16.81548,40.53803 c -1.43577,0 -2.59961,-1.14645 -2.59961,-2.61386 l 0,-9.67594 c 0,-1.46744 1.16384,-2.61388 2.59961,-2.61388 1.43584,0 2.59968,1.14644 2.59968,2.61388 l 0,9.67594 c 0,1.46741 -1.16384,2.61386 -2.59968,2.61386 z m -6.67085,-6.46592 c -0.42051,0 -0.84794,-0.0917 -1.24228,-0.32097 -5.32681,-2.88905 -8.63589,-8.48365 -8.63589,-14.53683 0,-9.12567 7.42339,-16.55461 16.5495,-16.55461 9.12425,0 16.54861,7.42894 16.54861,16.55461 0,6.05318 -3.30861,11.64778 -8.63451,14.53683 -1.26153,0.68789 -2.83998,0.22931 -3.52737,-1.05471 -0.68739,-1.23818 -0.22237,-2.84317 1.03825,-3.53103 3.65482,-1.97191 5.92524,-5.77806 5.92524,-9.95109 0,-6.23662 -5.09205,-11.32681 -11.34931,-11.32681 -6.25817,0 -11.35015,5.09019 -11.35015,11.32681 0,4.17303 2.27083,7.97918 5.92566,9.95109 1.26062,0.68786 1.72563,2.29285 1.03824,3.53103 -0.47326,0.87125 -1.36564,1.37568 -2.28599,1.37568 z m 98.21486,-29.44052 c 0.61914,-0.96298 1.81556,-1.37575 2.88858,-1.05472 1.07396,0.32102 1.81646,1.37576 1.81646,2.47631 l 0,26.32221 c 0,1.46749 -1.15566,2.61388 -2.55888,2.61388 -1.44403,0 -2.60012,-1.14639 -2.60012,-2.61388 l 0,-17.8844 -13.16523,19.35189 c -0.78368,1.19229 -2.3933,1.46741 -3.59064,0.68781 -1.19595,-0.82544 -1.48484,-2.43042 -0.70116,-3.57687 z m -21.50213,30.31184 c -0.24666,0.0917 -0.45351,0.0917 -0.6594,0.0917 -0.90796,0 -1.77515,-0.45859 -2.26952,-1.28403 l -10.40045,-17.93028 0,16.64626 c 0,1.4216 -1.15608,2.56805 -2.60016,2.56805 -1.40413,0 -2.55883,-1.14645 -2.55883,-2.56805 l 0,-26.3222 c 0,-1.14648 0.78465,-2.20119 1.89899,-2.52223 1.11476,-0.27512 2.31072,0.2293 2.93026,1.19236 l 10.40051,18.02197 0,-16.6921 c 0,-1.4216 1.15559,-2.61389 2.60009,-2.61389 1.40282,0 2.55891,1.19229 2.55891,2.61389 l 0,26.3222 c -0.002,1.14648 -0.78605,2.20114 -1.9004,2.47631 z m -23.56477,0.0458 c -1.44407,0 -2.60015,-1.14639 -2.60015,-2.61388 l 0,-26.27639 c 0,-1.42157 1.15608,-2.61386 2.60015,-2.61386 1.40324,0 2.5992,1.19229 2.5992,2.61386 l 0,26.27639 c 0,1.46749 -1.19596,2.61388 -2.5992,2.61388 z m -16.59172,0.7796 c -6.3967,0 -11.59689,-5.1819 -11.59689,-11.60193 l 0,-18.11376 c 0,-1.42159 1.15602,-2.61388 2.6001,-2.61388 1.44449,0 2.60009,1.19229 2.60009,2.61388 l 0,18.11376 c 0,3.57686 2.84822,6.42003 6.3967,6.42003 3.50763,0 6.39669,-2.84317 6.39669,-6.42003 l 0,-18.11376 c 0,-1.42159 1.15602,-2.61388 2.6001,-2.61388 1.44407,0 2.60009,1.19229 2.60009,2.61388 l 0,18.11376 c 0,6.42003 -5.19977,11.60193 -11.59688,11.60193 z m -113.12409,-4.86089 17.87023,-26.27639 c 0.61946,-0.96298 1.81638,-1.37575 2.88947,-1.05472 1.07307,0.32102 1.81549,1.37576 1.81549,2.47631 l 0,17.93029 13.16476,-19.35188 c 0.61906,-0.96298 1.8164,-1.37575 2.88948,-1.05472 1.11433,0.32102 1.85676,1.37576 1.85676,2.47631 l 0,26.32221 c 0,1.46749 -1.1556,2.61388 -2.6001,2.61388 -1.44311,0 -2.60009,-1.14639 -2.60009,-2.61388 l 0,-17.8844 -13.12355,19.35189 c -0.6599,0.96301 -1.81594,1.37567 -2.93027,1.00882 -1.07306,-0.32101 -1.81598,-1.32984 -1.81598,-2.47631 l 0,-17.8844 -13.16524,19.35189 c -0.78415,1.19229 -2.39377,1.46741 -3.59021,0.68781 -1.15601,-0.82544 -1.48624,-2.43042 -0.66075,-3.62271 z m -6.43844,-26.27639 c 0.61954,-0.96298 1.81552,-1.37575 2.88906,-1.05472 1.07307,0.32102 1.81641,1.37576 1.81641,2.47631 l 0,26.32221 c 0,1.46749 -1.15609,2.61388 -2.55883,2.61388 -1.44458,0 -2.60017,-1.14639 -2.60017,-2.61388 l 0,-17.8844 -13.16571,19.35189 c -0.78412,1.19229 -2.39371,1.46741 -3.59063,0.68781 -1.19598,-0.82544 -1.48487,-2.43042 -0.70069,-3.57687 z m -12.38195,1.51333 c 0,1.42157 -1.19645,2.56801 -2.59969,2.56801 l -4.87008,0 0,23.7083 c 0,1.46749 -1.15609,2.61394 -2.60009,2.61394 -1.44361,0 -2.60017,-1.14645 -2.60017,-2.61394 l 0,-23.7083 -4.8696,0 c -1.40367,0 -2.60012,-1.14644 -2.60012,-2.56801 0,-1.4216 1.19645,-2.61389 2.60012,-2.61389 l 14.93994,0 c 1.40234,0 2.59969,1.1464 2.59969,2.61389 z m -81.18026,24.76306 17.86978,-26.27639 c 0.61956,-0.96298 1.81641,-1.37575 2.88948,-1.05472 1.07309,0.32102 1.81551,1.37576 1.81551,2.47631 l 0,17.93029 13.16524,-19.35188 c 0.61906,-0.96298 1.81598,-1.37575 2.88905,-1.05472 1.11523,0.32102 1.85717,1.37576 1.85717,2.47631 l 0,26.32221 c 0,1.46749 -1.15558,2.61388 -2.60009,2.61388 -1.44358,0 -2.60014,-1.14639 -2.60014,-2.61388 l 0,-17.8844 -13.1235,19.35189 c -0.6599,0.96301 -1.81591,1.37567 -2.93031,1.00882 -1.07302,-0.32101 -1.81594,-1.32984 -1.81594,-2.47631 l 0,-17.8844 -13.16521,19.35189 c -0.78418,1.19229 -2.39379,1.46741 -3.59024,0.68781 -1.15601,-0.82544 -1.48624,-2.43042 -0.6608,-3.62271 z m 42.96347,1.51325 0,-26.32223 c 0,-1.42157 1.15606,-2.61386 2.60014,-2.61386 l 11.80327,0 c 1.44358,0 2.60009,1.19229 2.60009,2.61386 0,1.46749 -1.15601,2.61393 -2.60009,2.61393 l -9.20316,0 0,6.55761 7.71782,0 c 1.44408,0 2.60014,1.14645 2.60014,2.56804 0,1.42157 -1.15606,2.56802 -2.60014,2.56802 l -7.71782,0 0,9.44666 10.0286,0 c 1.44448,0 2.60009,1.1464 2.60009,2.56797 0,1.42165 -1.15561,2.56804 -2.60009,2.56804 l -12.62871,0 c -1.44451,0 -2.60014,-1.14639 -2.60014,-2.56804 z"
       inkscape:connector-curvature="0"
       sodipodi:nodetypes="ccccsccssscccsssssssscssscccsssccsccssssccccccsccsssscccsssccsssssssssssssssssssscccscccsssscccsccccccsssscccccsscssscssssscccscccsssscccsccccssssssccsssccsssss"
       inkscape:export-filename="/home/rodrigo/devel/jekyll-course-template/img/logo.png"
       inkscape:export-xdpi="300"
       inkscape:export-ydpi="300" />
  </g>
</svg>
